<svg version="1" xmlns="http://www.w3.org/2000/svg" width="1026.667" height="1026.667" viewBox="0 0 770.000000 770.000000"><path d="M132 220.5V234H0v187h132v118h501V421h31V234h-31v-27H132v13.5zm494 3.5v10H139v-20h487v10zm-121.5 31.3c5 1.4 10.9 3.4 13.2 4.4l4.1 1.8-4 10.1-4 10.1-9.6-3.3c-24.6-8.4-43.8-6.1-49.3 5.9-3.6 8.1-1.5 17.5 5.2 23.2 1.9 1.5 8.1 5 13.9 7.8 28.9 13.5 33.2 15.9 39 21.7 8.1 8.1 10.4 14.3 10.5 27.5 0 7.5-.5 11.3-1.9 15.2-4.3 11.6-14.1 20.2-28.1 25-7.5 2.5-9.2 2.7-25.5 2.8-18.4 0-27.9-1.4-37.7-5.6l-4.3-1.8v-23.9l7.5 2.9c21.4 8.3 43.8 9.9 55.7 3.8 7.3-3.7 11.1-13.2 8.8-21.7-1.7-6.5-7.5-11.6-19.8-17.4-33.3-15.6-37.6-18.5-44-28.5-10.8-17.1-7-42.3 8.1-53 11.7-8.4 19.8-10.4 39.2-9.9 10.9.4 16 1 23 2.9zm-246.8 74.2c15.5 41.8 28.3 76.1 28.3 76.2 0 .2-6 .3-13.4.3h-13.4l-1-2.8c-.6-1.5-3.7-10.4-7-19.7-3.3-9.4-6.3-17.8-6.7-18.8-.7-1.6-3-1.7-29.5-1.7h-28.7l-7.4 21.5-7.4 21.5h-13.4c-10.2 0-13.2-.3-12.9-1.3.3-.6 13.1-35.1 28.4-76.5l27.9-75.2 13.9.2 14 .3 28.3 76zm108.8-39c18.6 4.8 31.6 18.3 37.1 38.5 2.4 8.8 2.4 29.9.1 39-4.9 18.5-16 31.4-32.3 37.1-7.6 2.6-23.9 3.6-32.6 2-10.3-2-19.6-7.1-26.4-14.4-11.4-12.2-15.6-24.2-15.7-44.7-.1-22.8 6.2-37.7 20.4-49 5-3.9 13.2-7.5 20.4-9 6.9-1.4 22.7-1.1 29 .5zm259.5 186V532H139V421h487v55.5z"/><path d="M213.5 282.7c-1 3.8-5.8 18.4-10.6 32.6-4.9 14.1-8.9 25.9-8.9 26.2 0 .3 9.7.5 21.5.5s21.5-.3 21.5-.6-3-9.2-6.7-19.8c-3.6-10.5-8.5-25.1-10.8-32.4l-4.2-13.3-1.8 6.8zM343 310c-13.2 2.8-21 17-21 38.5 0 15.3 3.6 26.2 10.8 32.7 5.1 4.6 10 6.3 18.8 6.2 9.6 0 17.3-3.7 21.5-10.3 5-7.8 6.4-14 6.4-29.1 0-15-1.4-21-6.6-28.7-5.3-7.6-18.3-11.7-29.9-9.3zM468.2 453.4l.4 14.5-2.5-2.6c-7.1-7.1-21.3-7.1-28.9 0-10.2 9.5-10.2 35.9 0 45.4 3.5 3.3 9.1 5.3 14.8 5.3 6 0 10.5-1.7 14.1-5.4l2.7-2.6.6 3.5c.6 3.2 1 3.5 4.1 3.5h3.5v-76h-9.3l.5 14.4zm-6.2 16.4c4.6 3.3 6 7.7 6 18.5 0 12.6-1.8 16.7-8.5 19.2-4.8 1.9-10.8 1.5-14.6-.8-5.2-3.1-8.1-15.6-6-25.9 2.1-9.7 7.6-14.3 16.1-13.3 2.5.3 5.6 1.3 7 2.3zM351.2 442.2c-1.7 1.7-1.5 7.3.2 8.8 2.3 1.8 5.9.8 7.5-2.1 1.3-2.4 1.3-2.9-.2-5.3-1.9-2.8-5.4-3.5-7.5-1.4zM149 479.4V515h8v-30h14.8l8.7 15 8.7 15h4.9c5.8 0 6.5 2.1-5.6-18l-8.3-13.8 4.9-3.1c12.3-7.6 12-26.6-.6-33.1-4.5-2.3-6.2-2.5-20.2-2.8l-15.3-.4v35.6zm30.3-26.3c3.8 1.7 5.7 5.7 5.7 11.8 0 9.4-5.8 13-20.7 13.1H157V450.7l9.8.5c5.3.3 11 1.1 12.5 1.9zM218 461.6c-7.7 3.3-12.3 10.1-13.9 20.6-2.4 14.4 2.8 26.5 13.3 31.4 6.1 2.9 16.4 3.2 24.4.9 5-1.5 5.2-1.7 5.2-5.2 0-3.3-.1-3.5-2.7-2.9-10 2.2-14.2 2.7-17.8 2.2-8-1.3-12.4-5.8-14-14.9l-.7-3.7H249v-4.8c0-10.6-5-19.9-12.4-23.3-5-2.3-13.7-2.4-18.6-.3zm16.6 7.9c2.8 1.8 5.4 7.1 5.4 11v2.5h-27.8l.8-3.7c2.4-10.3 13.3-15.3 21.6-9.8zM276.5 461.4c-1.6.7-3.9 2.3-4.9 3.5-2.5 2.8-3.4 2.7-3.8-.7-.3-2.3-.8-2.7-4-3l-3.8-.3V515h8.8l.4-19.3c.3-21 1-23.9 6.4-26.7 1.5-.8 5.1-1.5 8.1-1.5 4.8 0 5.8.4 7.9 2.8 2.4 2.8 2.4 3.1 2.4 23.8V515h9v-18c0-25.2 2-29.4 14.1-29.5 10.6 0 11.9 3.2 11.9 29.2V515h8v-20.4c0-21.2-.6-25.2-4.4-29.5-6.3-7.1-22.4-6.6-29 .8l-2 2.1-3-2.9c-1.7-1.6-4.4-3.5-5.9-4-3.9-1.5-12.6-1.3-16.2.3zM389.5 461.8c-2.2 1.1-4.9 2.9-6 4.2l-2 2.2-.5-3.3c-.5-3.1-.8-3.4-4.2-3.7l-3.8-.3V515h8.9l.3-18.8c.3-20.3.9-22.7 6.1-26.6 2.2-1.6 4.3-2.1 9.3-2.1 5.6 0 6.7.3 9.1 2.8l2.8 2.7.3 21 .3 21h8.9v-16.8c0-24.9-1.3-30.3-8.4-35.6-3.9-3-15.6-3.4-21.1-.8zM503 461.6c-7.7 3.3-12.3 10.1-13.9 20.6-2.4 14.4 2.8 26.5 13.3 31.4 6.1 2.9 16.4 3.2 24.4.9 5-1.5 5.2-1.7 5.2-5.2 0-3.3-.1-3.5-2.7-2.9-10 2.2-14.2 2.7-17.8 2.2-8-1.3-12.4-5.8-14-14.9l-.7-3.7H534v-4.8c0-10.6-5-19.9-12.4-23.3-5-2.3-13.7-2.4-18.6-.3zm16.6 7.9c2.8 1.8 5.4 7.1 5.4 11v2.5h-27.8l.8-3.7c2.4-10.3 13.3-15.3 21.6-9.8zM560.4 462.6c-2.2 1.4-4.9 3.9-6 5.5l-1.9 2.9-.5-4.7c-.5-4.7-.6-4.8-4.2-5.1l-3.8-.3V515h9v-17.2c0-15.4.2-17.6 2.1-21.5 2.9-6.1 6.9-8.6 13.8-8.8l5.6-.2.3-3.6.3-3.7h-5.3c-4.1 0-6.4.6-9.4 2.6zM590.5 461.3c-7.8 3.1-11.1 7.9-10.2 15 .8 5.6 4.6 9.1 15.1 13.4 10.9 4.5 14.6 7.4 14.6 11.3 0 4.1-3.3 6.8-9.4 7.5-4.7.6-13.8-.8-18.8-3-1.5-.6-1.8-.1-1.8 3.2 0 5.2 2.6 6.4 14.3 7.1 10.2.5 15.6-1 20.3-5.9 2.6-2.7 2.9-3.7 2.9-9.6 0-6.3-.1-6.6-3.7-9.7-2-1.8-8-4.9-13.3-7-5.4-2.1-10.2-4.7-11-5.9-5.3-7.6 4.2-12.7 17.4-9.3 7.8 2 7.8 2 8.4-.2.2-.9.8-2.5 1.2-3.4 1.5-3.7-18.5-6.4-26-3.5zM350 488v27h9v-54h-9v27z"/></svg>