<svg version="1" xmlns="http://www.w3.org/2000/svg" width="1225.333" height="1225.333" viewBox="0 0 919.000000 919.000000"><path d="M162.1 208c-14.3 3.8-26.3 12.5-34.9 25.4-7.2 10.8-9.7 19.4-9.7 33.6 0 12.2 1.2 17.3 6.3 27.5 12.9 26 44.6 39.3 72.5 30.5l6.9-2.1 18.9 7.5c18.8 7.6 23.4 8.7 25.7 6.4 3.1-3.1 1.3-6.5-9.8-19.5-10.8-12.6-12-14.5-10-15.8 1.4-.9 6.3-10.9 8.6-17.5 2.9-8.6 2.7-26.2-.5-35.9-3-9-10.3-20.3-17.3-26.6-15-13.5-36.8-18.7-56.7-13.5zm31.8 12.1c13.1 4.4 25.1 15.6 30.2 28.6 2 4.9 2.3 7.6 2.4 17.8 0 14.2-1.8 20.4-9 30-2.5 3.3-4.5 6.7-4.5 7.6 0 .9 1.9 3.8 4.2 6.5 2.3 2.7 4.8 5.7 5.6 6.6 1.1 1.3-1.4.6-8.3-2.2-5.4-2.2-10.8-4-11.9-4-1.2 0-4.6 1-7.6 2.1-7.8 3-21.7 3.7-29.6 1.4-22.8-6.6-36.5-24.4-36.5-47.5 0-20.2 10.6-36.8 28.8-45.2 11.5-5.2 23.7-5.8 36.2-1.7z"/><path d="M172.9 228.9l-2.4 1.9v50.4l2.4 1.9c3.2 2.6 6.7 2.4 9.6-.6l2.5-2.4v-23.9c0-22.7-.1-24.1-2.1-26.6-2.5-3.1-6.6-3.4-10-.7zM172 291c-3.3 3.3-3 8.5.6 11.7 3.5 3.2 7 2.9 10.6-.7 2.5-2.6 2.9-3.6 2.4-6.3-.3-1.8-1.6-4-2.7-5-2.9-2.3-8.4-2.2-10.9.3zM249 351.5V365H117v187h132v118h501V552h31V365h-31v-27H249v13.5zm494 3.5v10H256v-20h487v10zm-124.5 30.9c9.3 2.3 19.5 5.9 19.5 7 0 .8-7 18.4-7.5 18.9-.2.2-3.5-.8-7.3-2.2-14.3-5.1-29.2-6.9-38.7-4.5-5.6 1.4-12 6.9-13.5 11.5-1.8 5.3-.8 13.6 2 17.7 3.4 4.9 9.8 8.9 25.6 16 20.1 9.1 24.1 11.3 29.9 16.8 6.7 6.4 10.2 12.8 11.6 21.8 2.1 14.1-2 26.9-11.6 36-10.6 10.1-22.3 13.6-44.5 13.5-16.4-.1-26-1.6-35.7-5.5l-5.3-2.1v-11.4c0-6.3.4-11.4.9-11.4s2.9.9 5.3 2c2.5 1.1 9 3.2 14.4 4.7 8.4 2.3 11.9 2.7 22.9 2.8 11.9 0 13.4-.2 17.9-2.5 6.5-3.3 10.7-8.5 11.3-14.4 1.6-13.6-4.8-19.9-32.1-31.6-28.1-12-37.9-23.6-37.9-45 0-7.4.5-10.7 2.2-15.1 5-13 17.2-21.7 34.7-24.9 7.4-1.4 26.8-.3 35.9 1.9zm-272-.2c.3 1 13 35.1 28.1 75.8 15.2 40.6 27.8 74.3 28 74.7.3.4-5.5.8-12.8.8h-13.3l-7.5-21.3-7.5-21.2h-58.7l-7.3 21-7.2 21-13.1.3-13.2.3 2.9-7.8c4.3-11.6 52.2-140.4 53.2-143.1.8-2.1 1.3-2.2 14.3-2.2 11.8 0 13.5.2 14.1 1.7zm135 35.8c10.5 2.2 18.4 6.5 25.1 13.8 11.3 12.1 15.4 23.9 15.4 44.2 0 32.1-14.2 52.4-40.5 58-26.2 5.5-50.2-4.9-60.8-26.5-4.8-9.6-6.7-18.8-6.7-32 0-31.6 14.1-51.8 40.1-57.5 8.5-1.8 18.8-1.8 27.4 0zm261.5 186V663H256V552h487v55.5z"/><path d="M331.5 408.5c-1.4 6.1-6.6 22.6-13.8 43.2l-7.4 21.3H355l-1.1-2.8c-2.3-5.8-13.4-38.3-17.5-51.2-3.6-11.6-4.3-13.1-4.9-10.5zM459 440.9c-8.3 2.7-13.6 7.9-17.1 16.8-2 5.1-2.3 7.6-2.3 20.8-.1 11.6.3 16.3 1.7 20.7 2.3 7.5 7.1 13.6 13.2 16.7 4.2 2.2 6.2 2.6 14 2.6 7.3 0 9.8-.4 13.1-2.2 5.5-3 9.7-8 12.5-15 2.1-5.2 2.4-7.4 2.4-21.8s-.3-16.6-2.4-21.8c-4.7-11.9-11.8-16.9-24.6-17.3-4.4-.2-9.1 0-10.5.5zM585.2 584.2l.3 14.3-2.3-2.3c-3.3-3.4-8.4-5.2-14.7-5.2-13.7 0-21.8 10-21.9 27-.1 4.7.5 10.6 1.3 13.2 1.6 5.7 7.2 12.5 11.8 14.4 7.6 3.2 20.9.7 24.7-4.7 1.6-2.3 1.6-2.3 1.6-.2 0 4.1 1.1 5.3 4.6 5.3h3.4v-76h-9.2l.4 14.2zm-6.2 16.6c4.1 3.1 5.4 6.9 5.8 17.7.2 8.2 0 10.6-1.5 13.4-2.8 5.3-6.4 7.5-12.7 7.5-10.1.1-15-6.2-15-19.9-.1-14.4 6.1-22.3 16.4-21 2.5.3 5.6 1.3 7 2.3zM468.1 573.4c-1.7 2-1 7.7 1 8.9 4.6 2.9 9.5-2.6 7-7.9-1.2-2.8-6.1-3.4-8-1zM265 610.4V646h9v-30h14.7l8.5 14.7 8.5 14.8 5.1.3c2.9.2 5.2.1 5.2-.2 0-.3-4-7.2-9-15.4-4.9-8.3-9-15.4-9-16 0-.5 1.4-1.5 3-2.2 4.2-1.7 8.8-7.3 9.6-11.5 1.1-6 0-13.9-2.5-17.4-4.5-6.3-8.7-7.5-26.8-7.9l-16.3-.4v35.6zm27.6-27.3c2.8.7 5.4 2.3 7 4.2 2.3 2.8 2.6 3.8 2.2 9.1-.4 4.9-.9 6.3-3.1 8.2-3.6 3.1-8.7 4.4-17.4 4.4H274v-27h7.1c3.8 0 9 .5 11.5 1.1zM334.5 592.9c-5.2 2.4-8.8 6.4-11.6 12.6-3.3 7.2-3.2 21 0 27.8 2.8 5.7 8.6 10.9 14 12.5 5.4 1.7 15.8 1.5 21.9-.3 5.1-1.5 5.2-1.7 5.2-5.3v-3.8l-7.9 1.9c-15.3 3.8-24.4-.9-26.4-13.6l-.6-3.7H366v-6.3c-.1-10-4.4-17.8-12.2-21.8-4.9-2.5-13.9-2.5-19.3 0zm15 6.5c3.7 1.6 5.9 5.1 7 10.9l.7 3.7h-27.5l.6-3.7c.8-4.8 3.4-8.3 7.8-10.5 4.1-2.2 6.9-2.2 11.4-.4zM392.2 593.1c-2.4 1.2-4.6 2.8-4.9 3.5-.8 2.1-2.3.6-2.3-2.2 0-2.1-.4-2.4-4-2.4h-4v54h9v-16.6c0-9.1.5-18.5 1.1-21 2-7.9 10-12.1 17.7-9.2 5.8 2.2 6.2 3.8 6.2 26.5V646h9v-16.8c.1-18.5.8-23.3 4.1-26.8 4.8-5.1 13.9-5.5 18.5-.9 2.4 2.4 2.4 2.6 2.4 23.5v21h9v-21.2c0-19.6-.2-21.5-2.1-25.6-2.7-5.6-7.9-8.1-16.2-8.2-6.2 0-10.5 1.6-14.9 5.7l-2.6 2.5-1.2-2.2c-3-5.7-16.8-7.8-24.8-3.9zM506.5 592.9c-2.2 1-4.6 2.5-5.4 3.4-1.7 2.1-3.1 1.3-3.1-1.9 0-2.1-.4-2.4-4-2.4h-4v54h8.8l.4-18.8c.4-21.7 1.1-24.1 8.1-27.3 5.1-2.3 8.6-2.4 13.3-.4 5.7 2.3 6.4 5.5 6.4 27.5v19h9.2l-.4-21.3c-.3-19.8-.5-21.5-2.6-25.5-1.7-3.1-3.5-4.9-6.5-6.3-5.5-2.4-14.8-2.5-20.2 0zM619.5 592.9c-5.2 2.4-8.8 6.4-11.6 12.6-3.3 7.2-3.2 21 0 27.8 2.8 5.7 8.6 10.9 14 12.5 5.4 1.7 15.8 1.5 21.9-.3 5.1-1.5 5.2-1.7 5.2-5.3v-3.8l-7.9 1.9c-15.3 3.8-24.4-.9-26.4-13.6l-.6-3.7H651v-6.3c-.1-10-4.4-17.8-12.2-21.8-4.9-2.5-13.9-2.5-19.3 0zm15 6.5c3.7 1.6 5.9 5.1 7 10.9l.7 3.7h-27.5l.6-3.7c.8-4.8 3.4-8.3 7.8-10.5 4.1-2.2 6.9-2.2 11.4-.4zM678.5 592.5c-1.6.9-4.5 3.2-6.2 5.3l-3.3 3.7V592h-8v54h9v-16.4c0-9.5.5-17.7 1.1-19.7 2.5-7.5 10.1-12.6 17-11.4 3.7.6 3.9.5 3.9-1.8 0-1.4.3-3.2.6-4.1.5-1.4-.3-1.6-5.2-1.6-3.3 0-7.2.7-8.9 1.5zM705.3 593c-5.3 2.4-8.3 7-8.3 12.9 0 6.1 4.8 10.7 15.9 15.2 13.4 5.4 17.5 11.1 11.5 15.8-4.8 3.8-15.5 3.6-25.7-.4-1.6-.7-1.8-.3-1.5 3.6.3 4.2.4 4.4 4.8 5.7 6.3 1.8 20.4 1.2 25.2-1.2 5.1-2.5 7.8-7.1 7.8-13.4 0-7.5-3.3-10.9-16.2-16.3-10.8-4.6-13.8-6.7-13.8-9.9 0-5.6 8.7-8.2 18.9-5.6 7.9 2 7.6 2.1 8.9-.9 1.8-4 1.6-4.3-4-6-7.3-2.1-18.3-1.9-23.5.5zM467 619v27h9v-54h-9v27z"/></svg>